<svg version="1.2" xmlns="http://www.w3.org/2000/svg" viewBox="0 0 232 172.00000000000003" width="232" height="173">
	<style>
		.s0 { fill: #ffffff } 
		.s1 { fill: #caed18 } 
	</style>
	<g id="Pasta 1">
		<g>
			<g>
				<path class="s0" d="m99.84 54.95c5.37-11.04 10.38-21.44 15.56-31.75 0.41-0.82 2.04-1.44 3.1-1.45 23.43-0.08 46.85-0.28 70.28 0.03 14.18 0.19 26.13 11.67 29.44 27.22 1.8 8.44 1.13 16.69-2.3 24.56-8.92 20.45-23.15 35.37-45.07 41.78-4.01 1.17-8.35 1.61-12.55 1.7q-18.14 0.35-36.29 0.03c-3.15-0.05-4.55 1.12-5.73 3.78-5.9 13.26-11.95 26.46-19.21 40.67-0.41-0.94-0.62-2.06-1.27-2.8-5.94-6.77-12.01-13.42-17.86-20.27-0.85-0.99-1.39-3.13-0.92-4.25q10.28-24.32 21.05-48.42c0.49-1.1 2.83-1.93 4.31-1.94 20.46-0.13 40.93-0.09 61.39-0.1 9.44 0 17.2-5.33 20.53-14.07 3.27-8.59-0.89-14.72-10.02-14.73q-34.56-0.01-69.12-0.01c-1.54 0-3.07 0-5.33 0z"/>
				<g>
					<path class="s1" d="m85.06 65.02c-3.23 7.36-6.11 13.92-8.99 20.49-9.53 21.76-19.04 43.52-28.65 65.24-0.51 1.15-1.93 2.67-2.95 2.69-10.14 0.2-20.29 0.12-30.99 0.12 1.31-3.32 2.41-6.28 3.63-9.19 10.68-25.58 21.36-51.17 32.14-76.71 0.45-1.07 1.77-2.5 2.7-2.52 10.79-0.18 21.58-0.11 33.12-0.11z"/>
					<path class="s1" d="m105.14 22.14c-5.06 10.86-9.74 20.98-14.54 31.04-0.33 0.7-1.54 1.39-2.35 1.4-10.91 0.09-21.83 0.06-33.49 0.06 2.56-6.24 4.9-12.02 7.31-17.76 1.73-4.14 3.48-8.29 5.41-12.34 0.47-0.98 1.69-2.28 2.58-2.29 11.4-0.16 22.81-0.1 35.09-0.1z"/>
				</g>
			</g>
		</g>
	</g>
</svg>