<?xml version="1.0" encoding="UTF-8"?>
<svg id="Camada_1" data-name="Camada 1" xmlns="http://www.w3.org/2000/svg" viewBox="0 0 913.85 183.15">
  <defs>
    <style>
      .cls-1 {
        fill: #fff;
      }

      .cls-2 {
        fill: #caed18;
      }
    </style>
  </defs>
  <g>
    <g>
      <path class="cls-1" d="m553.41,47.52c-3.53,13.37-6.79,25.71-10.04,38.06-1.9,7.23-3.9,14.44-5.61,21.72-.69,2.96-2.07,3.85-5.1,3.89-13.71.15-13.71.26-18.98-12.49-3.42-8.28-6.83-16.57-10.79-26.18-3.64,13.55-6.96,25.92-10.3,38.32h-16.28c4.11-15.33,8.1-30.23,12.09-45.12,1.2-4.49,2.41-8.99,3.63-13.48.31-1.12.54-3.13,1.03-3.2,4.81-.67,9.66-1.29,14.5-1.28,1.4,0,3.43,1.8,4.08,3.27,3.99,8.95,7.66,18.05,11.46,27.08.94,2.23,1.98,4.41,3.45,7.68,3.21-12,6.26-22.86,8.93-33.8.82-3.33,2.07-4.83,5.65-4.54,3.76.31,7.57.07,12.26.07Z"/>
      <path class="cls-1" d="m395.86,92.43c2.35,6.14,4.58,11.99,7.14,18.68-5.79,0-10.99.09-16.18-.09-.83-.03-1.91-1.1-2.35-1.96-.9-1.76-1.46-3.7-2.14-5.57-4.24-11.57-4.43-11.73-16.78-10.15-1.13.14-2.58,1.31-3.05,2.37-.94,2.09-1.21,4.47-1.93,6.68-3.37,10.41-.14,8.53-11.86,8.81-2.29.05-4.58,0-7.49,0,1.93-6.94,3.66-13.16,5.39-19.37,3.74-13.44,7.55-26.86,11.17-40.33.77-2.88,2.09-4.03,5.15-4,13.48.14,26.96-.05,40.43.13,8.27.11,12.7,5.93,10.87,14.11-1.3,5.83-2.78,11.64-4.52,17.35-2.07,6.79-6.48,11.51-13.83,13.33Zm-28.79-12.95c5.4,0,10.03,0,14.66,0,11.9.03,12.11-.15,14.47-12,.03-.16.1-.32.14-.48.92-3.41-.41-5.11-3.93-5.11-5.98,0-11.97-.15-17.95.11-1.18.05-2.93,1.48-3.32,2.64-1.51,4.55-2.58,9.24-4.07,14.83Z"/>
      <path class="cls-1" d="m438.5,111.41c-5.16,0-10.32.2-15.46-.04-9.36-.44-13.9-6.48-11.65-15.48,2.78-11.1,5.67-22.18,8.71-33.22,2.77-10.04,9.69-15.31,20.04-15.44,9.48-.12,18.96-.12,28.44-.05,10.05.07,15.18,5.52,13.08,15.32-2.6,12.15-5.84,24.23-9.76,36.02-2.75,8.29-9.69,12.45-18.44,12.92-4.97.27-9.98.05-14.96.05,0-.03,0-.06,0-.08Zm3.25-14.46v.02c3.16,0,6.48.6,9.42-.19,2.37-.63,5.51-2.54,6.2-4.58,2.74-8.16,4.69-16.59,6.85-24.94.93-3.57-.71-5.5-4.28-5.58-5.98-.13-12.01-.52-17.93.09-2.25.23-5.45,2.51-6.15,4.57-2.84,8.3-4.95,16.86-7.16,25.37-.83,3.21.56,5.18,4.07,5.22,2.99.03,5.98,0,8.98,0Z"/>
      <g>
        <path class="cls-2" d="m836.65,48.06c.14.76.22.93.19,1.08-1.72,11.64-1.72,11.72-13.39,11.97-6.99.15-13.98-.01-20.97.03-1.65,0-4-.36-4.81.54-2.06,2.28-4.51,5.07-4.8,7.87-.37,3.57,3.43,3.22,6.05,3.25,6.82.06,13.66-.22,20.46.14,8.82.47,12.54,5.52,10.74,14.04-.79,3.74-1.7,7.47-2.8,11.12-2.3,7.6-8.32,12.47-16.18,12.58-13.81.2-27.62.06-42.59.06,1.18-4.32,2.06-8.34,3.49-12.16.29-.77,2.59-1.09,3.97-1.1,10.15-.09,20.32.18,30.45-.23,2.35-.09,5.55-1.81,6.71-3.76,2.95-4.96.96-7.75-4.85-7.79-6.66-.04-13.32.1-19.97-.05-9.25-.2-13.18-5.39-11.34-14.45,3.63-17.86,7.42-24.31,28.97-23.23,10.11.51,20.26.09,30.67.09Z"/>
        <path class="cls-2" d="m900.37,48.1c-.9,3.6-1.29,6.79-2.57,9.57-.68,1.49-2.85,3.17-4.42,3.25-7.81.38-15.64.19-23.46.33-10.07.17-10.07.22-11.2,11.53h28.27c-.92,3.62-1.3,6.63-2.51,9.26-.65,1.41-2.67,2.97-4.16,3.07-5.97.39-11.97.26-17.96.27-7.88,0-7.89-.02-9.54,7.86-.23,1.11-.29,2.26-.51,4.07h36.38c-1.26,4.46-2.14,8.12-3.42,11.64-.3.84-1.94,1.69-2.97,1.7-16.14.08-32.28.03-48.43-.01-.28,0-.55-.28-1.17-.62,2.32-9.05,4.66-18.19,7.02-27.32,2.65-10.29,5.23-20.6,8.1-30.83.41-1.47,2.32-3.59,3.57-3.61,16.11-.24,32.23-.16,48.97-.16Z"/>
        <path class="cls-2" d="m574.18,110.07c2.6-9.95,5.19-19.88,7.77-29.81,2.38-9.16,4.86-18.29,7.08-27.48.83-3.44,2.34-4.85,6.09-4.78,12.8.22,25.61,0,38.42.09,7.04.05,11.81,3.94,10.92,10.61-1.16,8.61-3.38,17.25-6.51,25.35-2.34,6.06-8.21,8.83-15.02,8.81-7.82-.02-15.65.44-23.44.07-4.52-.21-6.42,1.58-6.97,5.66-.02.16-.05.33-.09.49-3.23,12.99-4.19,13.59-18.23,11.01Zm23.13-29.7c6.54,0,12.44.06,18.34-.01,8.2-.1,9.24-1,11.01-8.99.29-1.29.52-2.6.83-3.89.95-3.98-.62-6.19-4.7-6.26-5.81-.1-11.63-.1-17.44.12-1.21.05-3.15,1-3.45,1.95-1.67,5.33-2.95,10.79-4.59,17.09Z"/>
        <path class="cls-2" d="m671.29,48.15c-2.47,9.53-4.78,18.51-7.12,27.48-1.34,5.15-2.83,10.26-4.03,15.43-1.01,4.35.52,6.25,5.04,6.35,4.83.11,9.66-.15,14.49,0,5.21.16,8.03-2.42,9.23-7.25,3.05-12.25,6.3-24.46,9.08-36.78.96-4.25,2.84-5.83,7.08-5.36,2.92.32,5.9.06,9.57.06-.66,3.34-1.04,5.92-1.68,8.43-3.39,13.37-6.8,26.74-10.31,40.09-2.36,8.99-8.92,14.09-18.08,14.18-9.66.1-19.32.22-28.97.13-10.16-.09-14.56-5.83-12.03-15.75,3.66-14.33,7.62-28.58,11.19-42.93.82-3.29,2.35-4.31,5.5-4.13,3.45.2,6.92.05,11.03.05Z"/>
        <path class="cls-2" d="m709.14,110.56c2.3-9.29,4.49-18.28,6.76-27.23,2.65-10.46,5.44-20.88,8.04-31.35.7-2.8,1.87-4.24,5.04-4.01,3.77.28,7.57.06,12.05.06-4.41,16.54-8.63,32.34-13.09,49.04h35.81c-1.31,5.04-2.38,9.16-3.5,13.48h-51.1Z"/>
      </g>
      <path class="cls-1" d="m315.61,111.19c5.32-18.7,10.27-36.61,15.52-54.43,3.25-11.05.44-8.78,12.15-9.14,1.97-.06,3.94,0,6.7,0-1.03,4.18-1.83,7.82-2.83,11.39-4.42,15.84-9.03,31.63-13.27,47.52-1.02,3.8-2.76,5.07-6.55,4.73-3.61-.32-7.28-.07-11.73-.07Z"/>
      <g>
        <path class="cls-2" d="m257.44,156.78c5.51-43.47,11.02-86.94,16.53-130.4.56.07,1.11.14,1.67.21-5.54,43.4-11.07,86.8-16.61,130.2-.53,0-1.06,0-1.59,0Z"/>
        <path class="cls-2" d="m321.02,144.2h53.28c0,.28,0,.55,0,.83h-53.28v-.83Z"/>
        <path class="cls-2" d="m800.43,144.28h43.74c0,.26,0,.53,0,.79h-43.73c0-.26,0-.53,0-.79Z"/>
      </g>
    </g>
    <g>
      <path class="cls-1" d="m99.84,54.95c5.37-11.04,10.38-21.44,15.56-31.75.41-.82,2.04-1.44,3.1-1.45,23.43-.08,46.85-.28,70.28.03,14.18.19,26.13,11.67,29.44,27.22,1.8,8.44,1.13,16.69-2.3,24.56-8.92,20.45-23.15,35.37-45.07,41.78-4.01,1.17-8.35,1.61-12.55,1.7-12.09.23-24.2.24-36.29.03-3.15-.05-4.55,1.12-5.73,3.78-5.9,13.26-11.95,26.46-19.21,40.67-.41-.94-.62-2.06-1.27-2.8-5.94-6.77-12.01-13.42-17.86-20.27-.85-.99-1.39-3.13-.92-4.25,6.86-16.21,13.86-32.36,21.05-48.42.49-1.1,2.83-1.93,4.31-1.94,20.46-.13,40.93-.09,61.39-.1,9.44,0,17.2-5.33,20.53-14.07,3.27-8.59-.89-14.72-10.02-14.73-23.04-.01-46.08,0-69.12-.01-1.54,0-3.07,0-5.33,0Z"/>
      <g>
        <path class="cls-2" d="m85.06,65.02c-3.23,7.36-6.11,13.92-8.99,20.49-9.53,21.76-19.04,43.52-28.65,65.24-.51,1.15-1.93,2.67-2.95,2.69-10.14.2-20.29.12-30.99.12,1.31-3.32,2.41-6.28,3.63-9.19,10.68-25.58,21.36-51.17,32.14-76.71.45-1.07,1.77-2.5,2.7-2.52,10.79-.18,21.58-.11,33.12-.11Z"/>
        <path class="cls-2" d="m105.14,22.14c-5.06,10.86-9.74,20.98-14.54,31.04-.33.7-1.54,1.39-2.35,1.4-10.91.09-21.83.06-33.49.06,2.56-6.24,4.9-12.02,7.31-17.76,1.73-4.14,3.48-8.29,5.41-12.34.47-.98,1.69-2.28,2.58-2.29,11.4-.16,22.81-.1,35.09-.1Z"/>
      </g>
    </g>
  </g>
  <g>
    <path class="cls-1" d="m429.23,151.7h-9.06l-1.5,4.33h-4.79l8.18-22.77h5.31l8.18,22.77h-4.82l-1.5-4.33Zm-4.53-13.16l-3.29,9.51h6.58l-3.29-9.51Z"/>
    <path class="cls-1" d="m475.58,133c5.05,0,9.15,2.7,10.69,7.36h-5.25c-1.08-2.18-3.03-3.26-5.47-3.26-3.97,0-6.81,2.9-6.81,7.53s2.83,7.53,6.81,7.53c2.44,0,4.4-1.08,5.47-3.29h5.25c-1.53,4.69-5.64,7.36-10.69,7.36-6.55,0-11.53-4.79-11.53-11.6s4.98-11.63,11.53-11.63Z"/>
    <path class="cls-1" d="m530.67,151.7h-9.06l-1.5,4.33h-4.79l8.18-22.77h5.31l8.18,22.77h-4.82l-1.5-4.33Zm-4.53-13.16l-3.29,9.51h6.58l-3.29-9.51Z"/>
    <path class="cls-1" d="m586.53,144.69c0,6.87-4.72,11.34-11.99,11.34h-7.95v-22.74h7.95c7.27,0,11.99,4.5,11.99,11.4Zm-12.15,7.46c4.79,0,7.49-2.74,7.49-7.46s-2.7-7.56-7.49-7.56h-3.23v15.02h3.23Z"/>
    <path class="cls-1" d="m629.69,136.97h-8.63v5.7h7.66v3.62h-7.66v6.03h8.63v3.71h-13.19v-22.77h13.19v3.71Z"/>
    <path class="cls-1" d="m660.38,133.29h5.18l7.23,16.91,7.23-16.91h5.15v22.74h-4.56v-14.79l-6.09,14.79h-3.45l-6.12-14.79v14.79h-4.56v-22.74Z"/>
    <path class="cls-1" d="m716.21,133.29h4.56v22.74h-4.56v-22.74Z"/>
    <path class="cls-1" d="m765.76,151.7h-9.06l-1.5,4.33h-4.79l8.18-22.77h5.31l8.18,22.77h-4.82l-1.5-4.33Zm-4.53-13.16l-3.29,9.51h6.58l-3.29-9.51Z"/>
  </g>
</svg>